M48
; DRILL file {KiCad (6.0.9-0)} date Tuesday, November 15, 2022 at 09:04:57 pm
; FORMAT={-:-/ absolute / inch / decimal}
; #@! TF.CreationDate,2022-11-15T21:04:57-05:00
; #@! TF.GenerationSoftware,Kicad,Pcbnew,(6.0.9-0)
; #@! TF.FileFunction,Plated,1,2,PTH
FMAT,2
INCH
; #@! TA.AperFunction,Plated,PTH,ViaDrill
T1C0.0157
; #@! TA.AperFunction,Plated,PTH,ComponentDrill
T2C0.0315
; #@! TA.AperFunction,Plated,PTH,ComponentDrill
T3C0.0354
; #@! TA.AperFunction,Plated,PTH,ComponentDrill
T4C0.0394
; #@! TA.AperFunction,Plated,PTH,ComponentDrill
T5C0.0433
%
G90
G05
T1
X1.6748Y-4.05
X1.9248Y-3.95
X1.9768Y-4.3504
X4.6748Y-2.25
X4.9248Y-4.1
X4.9748Y-2.4
X4.9748Y-4.1
X5.0248Y-2.05
X5.0248Y-4.1
X5.0748Y-2.4
X5.0748Y-4.1
X5.1248Y-2.7
X5.1248Y-4.15
X5.1748Y-3.6
X5.1748Y-4.2
X5.2248Y-4.2
X5.7248Y-3.7
T2
X2.9248Y-4.1
X2.9248Y-4.3
X3.175Y-4.0504
X3.175Y-4.3504
X3.275Y-4.0504
X3.275Y-4.3504
X3.375Y-4.0504
X3.375Y-4.3504
X3.475Y-4.0504
X3.475Y-4.3504
X3.575Y-4.0504
X3.575Y-4.3504
X3.675Y-4.0504
X3.675Y-4.3504
X3.775Y-4.0504
X3.775Y-4.3504
X3.875Y-4.0504
X3.875Y-4.3504
X3.975Y-4.0504
X3.975Y-4.3504
X4.075Y-4.0504
X4.075Y-4.3504
X4.175Y-4.0504
X4.175Y-4.3504
X4.275Y-4.0504
X4.275Y-4.3504
T3
X1.2748Y-1.15
X1.2748Y-1.45
X1.2748Y-1.75
X1.2748Y-2.05
X1.2748Y-2.55
X1.2748Y-2.85
X1.2748Y-3.15
X1.2748Y-3.45
X1.3748Y-1.15
X1.3748Y-1.45
X1.3748Y-1.75
X1.3748Y-2.05
X1.3748Y-2.55
X1.3748Y-2.85
X1.3748Y-3.15
X1.3748Y-3.45
X1.6248Y-0.8
X1.6248Y-0.9
X1.6248Y-2.25
X1.6248Y-2.35
X1.6248Y-3.7
X1.6248Y-3.8
X1.9248Y-0.8
X1.9248Y-0.9
X1.9248Y-2.25
X1.9248Y-2.35
X1.9248Y-3.7
X1.9248Y-3.8
X2.2248Y-0.8
X2.2248Y-0.9
X2.2248Y-2.25
X2.2248Y-2.35
X2.2248Y-3.7
X2.2248Y-3.8
X2.5248Y-0.8
X2.5248Y-0.9
X2.5248Y-2.25
X2.5248Y-2.35
X2.5248Y-3.7
X2.5248Y-3.8
X2.7748Y-1.15
X2.7748Y-1.45
X2.7748Y-1.75
X2.7748Y-2.05
X2.7748Y-2.55
X2.7748Y-2.85
X2.7748Y-3.15
X2.7748Y-3.45
X2.8748Y-1.15
X2.8748Y-1.45
X2.8748Y-1.75
X2.8748Y-2.05
X2.8748Y-2.55
X2.8748Y-2.85
X2.8748Y-3.15
X2.8748Y-3.45
X3.1748Y-1.15
X3.1748Y-1.45
X3.1748Y-1.75
X3.1748Y-2.05
X3.1748Y-2.55
X3.1748Y-2.85
X3.1748Y-3.15
X3.1748Y-3.45
X3.2748Y-1.15
X3.2748Y-1.45
X3.2748Y-1.75
X3.2748Y-2.05
X3.2748Y-2.55
X3.2748Y-2.85
X3.2748Y-3.15
X3.2748Y-3.45
X3.5248Y-0.8
X3.5248Y-0.9
X3.5248Y-2.25
X3.5248Y-2.35
X3.5248Y-3.7
X3.5248Y-3.8
X3.8248Y-0.8
X3.8248Y-0.9
X3.8248Y-2.25
X3.8248Y-2.35
X3.8248Y-3.7
X3.8248Y-3.8
X4.1248Y-0.8
X4.1248Y-0.9
X4.1248Y-2.25
X4.1248Y-2.35
X4.1248Y-3.7
X4.1248Y-3.8
X4.4248Y-0.8
X4.4248Y-0.9
X4.4248Y-2.25
X4.4248Y-2.35
X4.4248Y-3.7
X4.4248Y-3.8
X4.6748Y-1.15
X4.6748Y-1.45
X4.6748Y-1.75
X4.6748Y-2.05
X4.6748Y-2.55
X4.6748Y-2.85
X4.6748Y-3.15
X4.6748Y-3.45
X4.7748Y-1.15
X4.7748Y-1.45
X4.7748Y-1.75
X4.7748Y-2.05
X4.7748Y-2.55
X4.7748Y-2.85
X4.7748Y-3.15
X4.7748Y-3.45
X5.5248Y-1.15
X5.5248Y-1.45
X5.5248Y-1.75
X5.5248Y-2.05
X5.5248Y-2.55
X5.5248Y-2.85
X5.5248Y-3.15
X5.5248Y-3.45
X5.6248Y-1.15
X5.6248Y-1.45
X5.6248Y-1.75
X5.6248Y-2.05
X5.6248Y-2.55
X5.6248Y-2.85
X5.6248Y-3.15
X5.6248Y-3.45
X5.8748Y-0.8
X5.8748Y-0.9
X5.8748Y-2.25
X5.8748Y-2.35
X5.8748Y-3.7
X5.8748Y-3.8
X6.1748Y-0.8
X6.1748Y-0.9
X6.1748Y-2.25
X6.1748Y-2.35
X6.1748Y-3.7
X6.1748Y-3.8
X6.4748Y-0.8
X6.4748Y-0.9
X6.4748Y-2.25
X6.4748Y-2.35
X6.4748Y-3.7
X6.4748Y-3.8
X6.7748Y-0.8
X6.7748Y-0.9
X6.7748Y-2.25
X6.7748Y-2.35
X6.7748Y-3.7
X6.7748Y-3.8
X7.0248Y-1.15
X7.0248Y-1.45
X7.0248Y-1.75
X7.0248Y-2.05
X7.0248Y-2.55
X7.0248Y-2.85
X7.0248Y-3.15
X7.0248Y-3.45
X7.1248Y-1.15
X7.1248Y-1.45
X7.1248Y-1.75
X7.1248Y-2.05
X7.1248Y-2.55
X7.1248Y-2.85
X7.1248Y-3.15
X7.1248Y-3.45
X7.4248Y-1.15
X7.4248Y-1.45
X7.4248Y-1.75
X7.4248Y-2.05
X7.4248Y-2.55
X7.4248Y-2.85
X7.4248Y-3.15
X7.4248Y-3.45
X7.5248Y-1.15
X7.5248Y-1.45
X7.5248Y-1.75
X7.5248Y-2.05
X7.5248Y-2.55
X7.5248Y-2.85
X7.5248Y-3.15
X7.5248Y-3.45
X7.7748Y-0.8
X7.7748Y-0.9
X7.7748Y-2.25
X7.7748Y-2.35
X7.7748Y-3.7
X7.7748Y-3.8
X8.0748Y-0.8
X8.0748Y-0.9
X8.0748Y-2.25
X8.0748Y-2.35
X8.0748Y-3.7
X8.0748Y-3.8
X8.3748Y-0.8
X8.3748Y-0.9
X8.3748Y-2.25
X8.3748Y-2.35
X8.3748Y-3.7
X8.3748Y-3.8
X8.6748Y-0.8
X8.6748Y-0.9
X8.6748Y-2.25
X8.6748Y-2.35
X8.6748Y-3.7
X8.6748Y-3.8
X8.9248Y-1.15
X8.9248Y-1.45
X8.9248Y-1.75
X8.9248Y-2.05
X8.9248Y-2.55
X8.9248Y-2.85
X8.9248Y-3.15
X8.9248Y-3.45
X9.0248Y-1.15
X9.0248Y-1.45
X9.0248Y-1.75
X9.0248Y-2.05
X9.0248Y-2.55
X9.0248Y-2.85
X9.0248Y-3.15
X9.0248Y-3.45
T4
X1.4254Y-4.199
X1.5254Y-4.199
X1.6254Y-4.199
X1.7254Y-4.199
X1.8254Y-4.199
X1.9254Y-4.199
X2.0254Y-4.199
X2.1254Y-4.199
T5
X5.4969Y-4.2114
X5.4969Y-4.3886
X5.7528Y-4.2114
X5.7528Y-4.3886
X5.9469Y-4.2114
X5.9469Y-4.3886
X6.2028Y-4.2114
X6.2028Y-4.3886
X6.3969Y-4.2114
X6.3969Y-4.3886
X6.6528Y-4.2114
X6.6528Y-4.3886
T0
M30
