%TF.GenerationSoftware,KiCad,Pcbnew,(6.0.9-0)*%
%TF.CreationDate,2022-11-15T20:56:47-05:00*%
%TF.ProjectId,clock,636c6f63-6b2e-46b6-9963-61645f706362,rev?*%
%TF.SameCoordinates,Original*%
%TF.FileFunction,Copper,L1,Top*%
%TF.FilePolarity,Positive*%
%FSLAX46Y46*%
G04 Gerber Fmt 4.6, Leading zero omitted, Abs format (unit mm)*
G04 Created by KiCad (PCBNEW (6.0.9-0)) date 2022-11-15 20:56:47*
%MOMM*%
%LPD*%
G01*
G04 APERTURE LIST*
%TA.AperFunction,ComponentPad*%
%ADD10R,1.800000X1.800000*%
%TD*%
%TA.AperFunction,ComponentPad*%
%ADD11C,1.800000*%
%TD*%
%TA.AperFunction,ComponentPad*%
%ADD12C,1.600000*%
%TD*%
%TA.AperFunction,ComponentPad*%
%ADD13C,2.000000*%
%TD*%
%TA.AperFunction,ComponentPad*%
%ADD14R,1.600000X1.600000*%
%TD*%
%TA.AperFunction,ComponentPad*%
%ADD15O,1.600000X1.600000*%
%TD*%
%TA.AperFunction,ComponentPad*%
%ADD16R,1.700000X1.700000*%
%TD*%
%TA.AperFunction,ComponentPad*%
%ADD17O,1.700000X1.700000*%
%TD*%
%TA.AperFunction,ViaPad*%
%ADD18C,0.800000*%
%TD*%
%TA.AperFunction,Conductor*%
%ADD19C,0.250000*%
%TD*%
G04 APERTURE END LIST*
D10*
%TO.P,D104,1,K*%
%TO.N,DIG_1*%
X80640000Y-29210000D03*
D11*
%TO.P,D104,2,A*%
%TO.N,SEG_F*%
X83180000Y-29210000D03*
%TD*%
D10*
%TO.P,D72,1,K*%
%TO.N,DIG_1*%
X118740000Y-52070000D03*
D11*
%TO.P,D72,2,A*%
%TO.N,SEG_B*%
X121280000Y-52070000D03*
%TD*%
D10*
%TO.P,D1,1,K*%
%TO.N,DIG_2*%
X149220000Y-22860000D03*
D11*
%TO.P,D1,2,A*%
%TO.N,SEG_A*%
X149220000Y-20320000D03*
%TD*%
D12*
%TO.P,R1,1*%
%TO.N,VCC*%
X74290000Y-104140000D03*
%TO.P,R1,2*%
%TO.N,Net-(R1-Pad2)*%
X74290000Y-109220000D03*
%TD*%
D10*
%TO.P,D91,1,K*%
%TO.N,DIG_3*%
X188590000Y-72390000D03*
D11*
%TO.P,D91,2,A*%
%TO.N,SEG_E*%
X191130000Y-72390000D03*
%TD*%
D10*
%TO.P,D43,1,K*%
%TO.N,DIG_2*%
X140330000Y-36830000D03*
D11*
%TO.P,D43,2,A*%
%TO.N,SEG_F*%
X142870000Y-36830000D03*
%TD*%
D10*
%TO.P,D36,1,K*%
%TO.N,DIG_2*%
X140330000Y-64770000D03*
D11*
%TO.P,D36,2,A*%
%TO.N,SEG_E*%
X142870000Y-64770000D03*
%TD*%
D10*
%TO.P,D5,1,K*%
%TO.N,DIG_2*%
X178430000Y-29210000D03*
D11*
%TO.P,D5,2,A*%
%TO.N,SEG_B*%
X180970000Y-29210000D03*
%TD*%
D10*
%TO.P,D48,1,K*%
%TO.N,DIG_0*%
X32380000Y-29210000D03*
D11*
%TO.P,D48,2,A*%
%TO.N,SEG_F*%
X34920000Y-29210000D03*
%TD*%
D10*
%TO.P,D22,1,K*%
%TO.N,DIG_0*%
X70480000Y-72390000D03*
D11*
%TO.P,D22,2,A*%
%TO.N,SEG_C*%
X73020000Y-72390000D03*
%TD*%
D10*
%TO.P,D27,1,K*%
%TO.N,DIG_2*%
X156840000Y-96520000D03*
D11*
%TO.P,D27,2,A*%
%TO.N,SEG_D*%
X156840000Y-93980000D03*
%TD*%
D10*
%TO.P,D53,1,K*%
%TO.N,DIG_0*%
X41270000Y-59690000D03*
D11*
%TO.P,D53,2,A*%
%TO.N,SEG_G*%
X41270000Y-57150000D03*
%TD*%
D10*
%TO.P,D81,1,K*%
%TO.N,DIG_3*%
X220340000Y-96520000D03*
D11*
%TO.P,D81,2,A*%
%TO.N,SEG_D*%
X220340000Y-93980000D03*
%TD*%
D10*
%TO.P,D52,1,K*%
%TO.N,DIG_2*%
X172080000Y-59690000D03*
D11*
%TO.P,D52,2,A*%
%TO.N,SEG_G*%
X172080000Y-57150000D03*
%TD*%
D10*
%TO.P,D10,1,K*%
%TO.N,DIG_0*%
X48890000Y-22860000D03*
D11*
%TO.P,D10,2,A*%
%TO.N,SEG_A*%
X48890000Y-20320000D03*
%TD*%
D10*
%TO.P,D21,1,K*%
%TO.N,DIG_0*%
X70480000Y-64770000D03*
D11*
%TO.P,D21,2,A*%
%TO.N,SEG_C*%
X73020000Y-64770000D03*
%TD*%
D10*
%TO.P,D63,1,K*%
%TO.N,DIG_1*%
X104770000Y-22860000D03*
D11*
%TO.P,D63,2,A*%
%TO.N,SEG_A*%
X104770000Y-20320000D03*
%TD*%
D10*
%TO.P,D59,1,K*%
%TO.N,DIG_3*%
X212720000Y-22860000D03*
D11*
%TO.P,D59,2,A*%
%TO.N,SEG_A*%
X212720000Y-20320000D03*
%TD*%
D10*
%TO.P,D103,1,K*%
%TO.N,DIG_1*%
X80640000Y-36830000D03*
D11*
%TO.P,D103,2,A*%
%TO.N,SEG_F*%
X83180000Y-36830000D03*
%TD*%
D10*
%TO.P,D51,1,K*%
%TO.N,DIG_2*%
X164460000Y-59690000D03*
D11*
%TO.P,D51,2,A*%
%TO.N,SEG_G*%
X164460000Y-57150000D03*
%TD*%
D10*
%TO.P,D61,1,K*%
%TO.N,DIG_1*%
X89530000Y-22860000D03*
D11*
%TO.P,D61,2,A*%
%TO.N,SEG_A*%
X89530000Y-20320000D03*
%TD*%
D10*
%TO.P,D45,1,K*%
%TO.N,DIG_0*%
X32380000Y-52070000D03*
D11*
%TO.P,D45,2,A*%
%TO.N,SEG_F*%
X34920000Y-52070000D03*
%TD*%
D10*
%TO.P,D29,1,K*%
%TO.N,DIG_0*%
X64130000Y-96520000D03*
D11*
%TO.P,D29,2,A*%
%TO.N,SEG_D*%
X64130000Y-93980000D03*
%TD*%
D10*
%TO.P,D90,1,K*%
%TO.N,DIG_3*%
X188590000Y-80010000D03*
D11*
%TO.P,D90,2,A*%
%TO.N,SEG_E*%
X191130000Y-80010000D03*
%TD*%
D10*
%TO.P,D96,1,K*%
%TO.N,DIG_1*%
X80640000Y-64770000D03*
D11*
%TO.P,D96,2,A*%
%TO.N,SEG_E*%
X83180000Y-64770000D03*
%TD*%
D10*
%TO.P,D40,1,K*%
%TO.N,DIG_0*%
X32380000Y-64770000D03*
D11*
%TO.P,D40,2,A*%
%TO.N,SEG_E*%
X34920000Y-64770000D03*
%TD*%
D10*
%TO.P,D83,1,K*%
%TO.N,DIG_3*%
X205100000Y-96520000D03*
D11*
%TO.P,D83,2,A*%
%TO.N,SEG_D*%
X205100000Y-93980000D03*
%TD*%
D10*
%TO.P,D19,1,K*%
%TO.N,DIG_2*%
X178430000Y-80010000D03*
D11*
%TO.P,D19,2,A*%
%TO.N,SEG_C*%
X180970000Y-80010000D03*
%TD*%
D10*
%TO.P,D74,1,K*%
%TO.N,DIG_3*%
X226690000Y-72390000D03*
D11*
%TO.P,D74,2,A*%
%TO.N,SEG_C*%
X229230000Y-72390000D03*
%TD*%
D10*
%TO.P,D26,1,K*%
%TO.N,DIG_2*%
X164460000Y-96520000D03*
D11*
%TO.P,D26,2,A*%
%TO.N,SEG_D*%
X164460000Y-93980000D03*
%TD*%
D10*
%TO.P,D67,1,K*%
%TO.N,DIG_3*%
X226690000Y-44450000D03*
D11*
%TO.P,D67,2,A*%
%TO.N,SEG_B*%
X229230000Y-44450000D03*
%TD*%
D10*
%TO.P,D70,1,K*%
%TO.N,DIG_1*%
X118740000Y-36830000D03*
D11*
%TO.P,D70,2,A*%
%TO.N,SEG_B*%
X121280000Y-36830000D03*
%TD*%
D10*
%TO.P,D39,1,K*%
%TO.N,DIG_0*%
X32380000Y-72390000D03*
D11*
%TO.P,D39,2,A*%
%TO.N,SEG_E*%
X34920000Y-72390000D03*
%TD*%
D10*
%TO.P,D56,1,K*%
%TO.N,DIG_0*%
X64130000Y-59690000D03*
D11*
%TO.P,D56,2,A*%
%TO.N,SEG_G*%
X64130000Y-57150000D03*
%TD*%
D10*
%TO.P,D68,1,K*%
%TO.N,DIG_3*%
X226690000Y-52070000D03*
D11*
%TO.P,D68,2,A*%
%TO.N,SEG_B*%
X229230000Y-52070000D03*
%TD*%
D10*
%TO.P,D64,1,K*%
%TO.N,DIG_1*%
X112390000Y-22860000D03*
D11*
%TO.P,D64,2,A*%
%TO.N,SEG_A*%
X112390000Y-20320000D03*
%TD*%
D10*
%TO.P,D109,1,K*%
%TO.N,DIG_1*%
X89530000Y-59690000D03*
D11*
%TO.P,D109,2,A*%
%TO.N,SEG_G*%
X89530000Y-57150000D03*
%TD*%
D10*
%TO.P,D69,1,K*%
%TO.N,DIG_1*%
X118740000Y-29210000D03*
D11*
%TO.P,D69,2,A*%
%TO.N,SEG_B*%
X121280000Y-29210000D03*
%TD*%
D10*
%TO.P,D73,1,K*%
%TO.N,DIG_3*%
X226690000Y-64770000D03*
D11*
%TO.P,D73,2,A*%
%TO.N,SEG_C*%
X229230000Y-64770000D03*
%TD*%
D10*
%TO.P,D89,1,K*%
%TO.N,DIG_3*%
X188590000Y-87630000D03*
D11*
%TO.P,D89,2,A*%
%TO.N,SEG_E*%
X191130000Y-87630000D03*
%TD*%
D10*
%TO.P,D9,1,K*%
%TO.N,DIG_0*%
X41270000Y-22860000D03*
D11*
%TO.P,D9,2,A*%
%TO.N,SEG_A*%
X41270000Y-20320000D03*
%TD*%
D13*
%TO.P,SW2,1,1*%
%TO.N,DOWN*%
X151050000Y-111470000D03*
X157550000Y-111470000D03*
%TO.P,SW2,2,2*%
%TO.N,GND*%
X151050000Y-106970000D03*
X157550000Y-106970000D03*
%TD*%
D10*
%TO.P,D4,1,K*%
%TO.N,DIG_2*%
X172080000Y-22860000D03*
D11*
%TO.P,D4,2,A*%
%TO.N,SEG_A*%
X172080000Y-20320000D03*
%TD*%
D10*
%TO.P,D88,1,K*%
%TO.N,DIG_1*%
X89530000Y-96520000D03*
D11*
%TO.P,D88,2,A*%
%TO.N,SEG_D*%
X89530000Y-93980000D03*
%TD*%
D10*
%TO.P,D28,1,K*%
%TO.N,DIG_2*%
X149220000Y-96520000D03*
D11*
%TO.P,D28,2,A*%
%TO.N,SEG_D*%
X149220000Y-93980000D03*
%TD*%
D10*
%TO.P,D57,1,K*%
%TO.N,DIG_3*%
X197480000Y-22860000D03*
D11*
%TO.P,D57,2,A*%
%TO.N,SEG_A*%
X197480000Y-20320000D03*
%TD*%
D10*
%TO.P,D65,1,K*%
%TO.N,DIG_3*%
X226690000Y-29210000D03*
D11*
%TO.P,D65,2,A*%
%TO.N,SEG_B*%
X229230000Y-29210000D03*
%TD*%
D10*
%TO.P,D24,1,K*%
%TO.N,DIG_0*%
X70480000Y-87630000D03*
D11*
%TO.P,D24,2,A*%
%TO.N,SEG_C*%
X73020000Y-87630000D03*
%TD*%
D10*
%TO.P,D20,1,K*%
%TO.N,DIG_2*%
X178430000Y-87630000D03*
D11*
%TO.P,D20,2,A*%
%TO.N,SEG_C*%
X180970000Y-87630000D03*
%TD*%
D10*
%TO.P,D37,1,K*%
%TO.N,DIG_0*%
X32380000Y-87630000D03*
D11*
%TO.P,D37,2,A*%
%TO.N,SEG_E*%
X34920000Y-87630000D03*
%TD*%
D10*
%TO.P,D54,1,K*%
%TO.N,DIG_0*%
X48890000Y-59690000D03*
D11*
%TO.P,D54,2,A*%
%TO.N,SEG_G*%
X48890000Y-57150000D03*
%TD*%
D10*
%TO.P,D80,1,K*%
%TO.N,DIG_1*%
X118740000Y-87630000D03*
D11*
%TO.P,D80,2,A*%
%TO.N,SEG_C*%
X121280000Y-87630000D03*
%TD*%
D10*
%TO.P,D47,1,K*%
%TO.N,DIG_0*%
X32380000Y-36830000D03*
D11*
%TO.P,D47,2,A*%
%TO.N,SEG_F*%
X34920000Y-36830000D03*
%TD*%
D10*
%TO.P,D34,1,K*%
%TO.N,DIG_2*%
X140330000Y-80010000D03*
D11*
%TO.P,D34,2,A*%
%TO.N,SEG_E*%
X142870000Y-80010000D03*
%TD*%
D10*
%TO.P,D102,1,K*%
%TO.N,DIG_1*%
X80640000Y-44450000D03*
D11*
%TO.P,D102,2,A*%
%TO.N,SEG_F*%
X83180000Y-44450000D03*
%TD*%
D10*
%TO.P,D35,1,K*%
%TO.N,DIG_2*%
X140330000Y-72390000D03*
D11*
%TO.P,D35,2,A*%
%TO.N,SEG_E*%
X142870000Y-72390000D03*
%TD*%
D10*
%TO.P,D112,1,K*%
%TO.N,DIG_1*%
X112390000Y-59690000D03*
D11*
%TO.P,D112,2,A*%
%TO.N,SEG_G*%
X112390000Y-57150000D03*
%TD*%
D10*
%TO.P,D71,1,K*%
%TO.N,DIG_1*%
X118740000Y-44450000D03*
D11*
%TO.P,D71,2,A*%
%TO.N,SEG_B*%
X121280000Y-44450000D03*
%TD*%
D10*
%TO.P,D49,1,K*%
%TO.N,DIG_2*%
X149220000Y-59690000D03*
D11*
%TO.P,D49,2,A*%
%TO.N,SEG_G*%
X149220000Y-57150000D03*
%TD*%
D10*
%TO.P,D17,1,K*%
%TO.N,DIG_2*%
X178430000Y-64770000D03*
D11*
%TO.P,D17,2,A*%
%TO.N,SEG_C*%
X180970000Y-64770000D03*
%TD*%
D10*
%TO.P,D106,1,K*%
%TO.N,DIG_3*%
X205100000Y-59690000D03*
D11*
%TO.P,D106,2,A*%
%TO.N,SEG_G*%
X205100000Y-57150000D03*
%TD*%
D10*
%TO.P,D32,1,K*%
%TO.N,DIG_0*%
X41270000Y-96520000D03*
D11*
%TO.P,D32,2,A*%
%TO.N,SEG_D*%
X41270000Y-93980000D03*
%TD*%
D10*
%TO.P,D100,1,K*%
%TO.N,DIG_3*%
X188590000Y-29210000D03*
D11*
%TO.P,D100,2,A*%
%TO.N,SEG_F*%
X191130000Y-29210000D03*
%TD*%
D10*
%TO.P,D55,1,K*%
%TO.N,DIG_0*%
X56510000Y-59690000D03*
D11*
%TO.P,D55,2,A*%
%TO.N,SEG_G*%
X56510000Y-57150000D03*
%TD*%
D10*
%TO.P,D44,1,K*%
%TO.N,DIG_2*%
X140330000Y-29210000D03*
D11*
%TO.P,D44,2,A*%
%TO.N,SEG_F*%
X142870000Y-29210000D03*
%TD*%
D10*
%TO.P,D15,1,K*%
%TO.N,DIG_0*%
X70480000Y-44450000D03*
D11*
%TO.P,D15,2,A*%
%TO.N,SEG_B*%
X73020000Y-44450000D03*
%TD*%
D10*
%TO.P,D99,1,K*%
%TO.N,DIG_3*%
X188590000Y-36830000D03*
D11*
%TO.P,D99,2,A*%
%TO.N,SEG_F*%
X191130000Y-36830000D03*
%TD*%
D10*
%TO.P,D108,1,K*%
%TO.N,DIG_3*%
X220340000Y-59690000D03*
D11*
%TO.P,D108,2,A*%
%TO.N,SEG_G*%
X220340000Y-57150000D03*
%TD*%
D10*
%TO.P,D66,1,K*%
%TO.N,DIG_3*%
X226690000Y-36830000D03*
D11*
%TO.P,D66,2,A*%
%TO.N,SEG_B*%
X229230000Y-36830000D03*
%TD*%
D10*
%TO.P,D58,1,K*%
%TO.N,DIG_3*%
X205100000Y-22860000D03*
D11*
%TO.P,D58,2,A*%
%TO.N,SEG_A*%
X205100000Y-20320000D03*
%TD*%
D10*
%TO.P,D110,1,K*%
%TO.N,DIG_1*%
X97150000Y-59690000D03*
D11*
%TO.P,D110,2,A*%
%TO.N,SEG_G*%
X97150000Y-57150000D03*
%TD*%
D10*
%TO.P,D23,1,K*%
%TO.N,DIG_0*%
X70480000Y-80010000D03*
D11*
%TO.P,D23,2,A*%
%TO.N,SEG_C*%
X73020000Y-80010000D03*
%TD*%
D14*
%TO.P,U2,1,DIN*%
%TO.N,MOSI*%
X108585000Y-102880000D03*
D15*
%TO.P,U2,2,DIG_0*%
%TO.N,DIG_0*%
X106045000Y-102880000D03*
%TO.P,U2,3,DIG_4*%
%TO.N,unconnected-(U2-Pad3)*%
X103505000Y-102880000D03*
%TO.P,U2,4,GND*%
%TO.N,GND*%
X100965000Y-102880000D03*
%TO.P,U2,5,DIG_6*%
%TO.N,unconnected-(U2-Pad5)*%
X98425000Y-102880000D03*
%TO.P,U2,6,DIG_2*%
%TO.N,DIG_2*%
X95885000Y-102880000D03*
%TO.P,U2,7,DIG_3*%
%TO.N,DIG_3*%
X93345000Y-102880000D03*
%TO.P,U2,8,DIG_7*%
%TO.N,unconnected-(U2-Pad8)*%
X90805000Y-102880000D03*
%TO.P,U2,9,GND*%
%TO.N,GND*%
X88265000Y-102880000D03*
%TO.P,U2,10,DIG_5*%
%TO.N,unconnected-(U2-Pad10)*%
X85725000Y-102880000D03*
%TO.P,U2,11,DIG_1*%
%TO.N,DIG_1*%
X83185000Y-102880000D03*
%TO.P,U2,12,LOAD*%
%TO.N,CE*%
X80645000Y-102880000D03*
%TO.P,U2,13,CLK*%
%TO.N,SCK*%
X80645000Y-110500000D03*
%TO.P,U2,14,SEG_A*%
%TO.N,SEG_A*%
X83185000Y-110500000D03*
%TO.P,U2,15,SEG_F*%
%TO.N,SEG_F*%
X85725000Y-110500000D03*
%TO.P,U2,16,SEG_B*%
%TO.N,SEG_B*%
X88265000Y-110500000D03*
%TO.P,U2,17,SEG_G*%
%TO.N,SEG_G*%
X90805000Y-110500000D03*
%TO.P,U2,18,ISET*%
%TO.N,Net-(R1-Pad2)*%
X93345000Y-110500000D03*
%TO.P,U2,19,V+*%
%TO.N,VCC*%
X95885000Y-110500000D03*
%TO.P,U2,20,SEG_C*%
%TO.N,SEG_C*%
X98425000Y-110500000D03*
%TO.P,U2,21,SEG_E*%
%TO.N,SEG_E*%
X100965000Y-110500000D03*
%TO.P,U2,22,SEG_DP*%
%TO.N,unconnected-(U2-Pad22)*%
X103505000Y-110500000D03*
%TO.P,U2,23,SEG_D*%
%TO.N,SEG_D*%
X106045000Y-110500000D03*
%TO.P,U2,24,DOUT*%
%TO.N,unconnected-(U2-Pad24)*%
X108585000Y-110500000D03*
%TD*%
D10*
%TO.P,D33,1,K*%
%TO.N,DIG_2*%
X140330000Y-87630000D03*
D11*
%TO.P,D33,2,A*%
%TO.N,SEG_E*%
X142870000Y-87630000D03*
%TD*%
D10*
%TO.P,D92,1,K*%
%TO.N,DIG_3*%
X188590000Y-64770000D03*
D11*
%TO.P,D92,2,A*%
%TO.N,SEG_E*%
X191130000Y-64770000D03*
%TD*%
D10*
%TO.P,D7,1,K*%
%TO.N,DIG_2*%
X178430000Y-44450000D03*
D11*
%TO.P,D7,2,A*%
%TO.N,SEG_B*%
X180970000Y-44450000D03*
%TD*%
D10*
%TO.P,D82,1,K*%
%TO.N,DIG_3*%
X212720000Y-96520000D03*
D11*
%TO.P,D82,2,A*%
%TO.N,SEG_D*%
X212720000Y-93980000D03*
%TD*%
D10*
%TO.P,D79,1,K*%
%TO.N,DIG_1*%
X118740000Y-80010000D03*
D11*
%TO.P,D79,2,A*%
%TO.N,SEG_C*%
X121280000Y-80010000D03*
%TD*%
D10*
%TO.P,D30,1,K*%
%TO.N,DIG_0*%
X56510000Y-96520000D03*
D11*
%TO.P,D30,2,A*%
%TO.N,SEG_D*%
X56510000Y-93980000D03*
%TD*%
D10*
%TO.P,D95,1,K*%
%TO.N,DIG_1*%
X80640000Y-72390000D03*
D11*
%TO.P,D95,2,A*%
%TO.N,SEG_E*%
X83180000Y-72390000D03*
%TD*%
D10*
%TO.P,D16,1,K*%
%TO.N,DIG_0*%
X70480000Y-52070000D03*
D11*
%TO.P,D16,2,A*%
%TO.N,SEG_B*%
X73020000Y-52070000D03*
%TD*%
D10*
%TO.P,D13,1,K*%
%TO.N,DIG_0*%
X70480000Y-29210000D03*
D11*
%TO.P,D13,2,A*%
%TO.N,SEG_B*%
X73020000Y-29210000D03*
%TD*%
D10*
%TO.P,D60,1,K*%
%TO.N,DIG_3*%
X220340000Y-22860000D03*
D11*
%TO.P,D60,2,A*%
%TO.N,SEG_A*%
X220340000Y-20320000D03*
%TD*%
D10*
%TO.P,D2,1,K*%
%TO.N,DIG_2*%
X156840000Y-22860000D03*
D11*
%TO.P,D2,2,A*%
%TO.N,SEG_A*%
X156840000Y-20320000D03*
%TD*%
D10*
%TO.P,D11,1,K*%
%TO.N,DIG_0*%
X56510000Y-22860000D03*
D11*
%TO.P,D11,2,A*%
%TO.N,SEG_A*%
X56510000Y-20320000D03*
%TD*%
D10*
%TO.P,D101,1,K*%
%TO.N,DIG_1*%
X80640000Y-52070000D03*
D11*
%TO.P,D101,2,A*%
%TO.N,SEG_F*%
X83180000Y-52070000D03*
%TD*%
D13*
%TO.P,SW3,1,1*%
%TO.N,SET*%
X162480000Y-111470000D03*
X168980000Y-111470000D03*
%TO.P,SW3,2,2*%
%TO.N,GND*%
X162480000Y-106970000D03*
X168980000Y-106970000D03*
%TD*%
D10*
%TO.P,D50,1,K*%
%TO.N,DIG_2*%
X156840000Y-59690000D03*
D11*
%TO.P,D50,2,A*%
%TO.N,SEG_G*%
X156840000Y-57150000D03*
%TD*%
D10*
%TO.P,D86,1,K*%
%TO.N,DIG_1*%
X104770000Y-96520000D03*
D11*
%TO.P,D86,2,A*%
%TO.N,SEG_D*%
X104770000Y-93980000D03*
%TD*%
D10*
%TO.P,D3,1,K*%
%TO.N,DIG_2*%
X164460000Y-22860000D03*
D11*
%TO.P,D3,2,A*%
%TO.N,SEG_A*%
X164460000Y-20320000D03*
%TD*%
D10*
%TO.P,D76,1,K*%
%TO.N,DIG_3*%
X226690000Y-87630000D03*
D11*
%TO.P,D76,2,A*%
%TO.N,SEG_C*%
X229230000Y-87630000D03*
%TD*%
D10*
%TO.P,D14,1,K*%
%TO.N,DIG_0*%
X70480000Y-36830000D03*
D11*
%TO.P,D14,2,A*%
%TO.N,SEG_B*%
X73020000Y-36830000D03*
%TD*%
D10*
%TO.P,D78,1,K*%
%TO.N,DIG_1*%
X118740000Y-72390000D03*
D11*
%TO.P,D78,2,A*%
%TO.N,SEG_C*%
X121280000Y-72390000D03*
%TD*%
D10*
%TO.P,D42,1,K*%
%TO.N,DIG_2*%
X140330000Y-44450000D03*
D11*
%TO.P,D42,2,A*%
%TO.N,SEG_F*%
X142870000Y-44450000D03*
%TD*%
D16*
%TO.P,J1,1,Pin_1*%
%TO.N,VCC*%
X36205000Y-106655000D03*
D17*
%TO.P,J1,2,Pin_2*%
%TO.N,GND*%
X38745000Y-106655000D03*
%TO.P,J1,3,Pin_3*%
%TO.N,MOSI*%
X41285000Y-106655000D03*
%TO.P,J1,4,Pin_4*%
%TO.N,CE*%
X43825000Y-106655000D03*
%TO.P,J1,5,Pin_5*%
%TO.N,SCK*%
X46365000Y-106655000D03*
%TO.P,J1,6,Pin_6*%
%TO.N,UP*%
X48905000Y-106655000D03*
%TO.P,J1,7,Pin_7*%
%TO.N,DOWN*%
X51445000Y-106655000D03*
%TO.P,J1,8,Pin_8*%
%TO.N,SET*%
X53985000Y-106655000D03*
%TD*%
D10*
%TO.P,D97,1,K*%
%TO.N,DIG_3*%
X188590000Y-52070000D03*
D11*
%TO.P,D97,2,A*%
%TO.N,SEG_F*%
X191130000Y-52070000D03*
%TD*%
D10*
%TO.P,D98,1,K*%
%TO.N,DIG_3*%
X188590000Y-44450000D03*
D11*
%TO.P,D98,2,A*%
%TO.N,SEG_F*%
X191130000Y-44450000D03*
%TD*%
D10*
%TO.P,D94,1,K*%
%TO.N,DIG_1*%
X80640000Y-80010000D03*
D11*
%TO.P,D94,2,A*%
%TO.N,SEG_E*%
X83180000Y-80010000D03*
%TD*%
D10*
%TO.P,D38,1,K*%
%TO.N,DIG_0*%
X32380000Y-80010000D03*
D11*
%TO.P,D38,2,A*%
%TO.N,SEG_E*%
X34920000Y-80010000D03*
%TD*%
D10*
%TO.P,D85,1,K*%
%TO.N,DIG_1*%
X112390000Y-96520000D03*
D11*
%TO.P,D85,2,A*%
%TO.N,SEG_D*%
X112390000Y-93980000D03*
%TD*%
D10*
%TO.P,D77,1,K*%
%TO.N,DIG_1*%
X118740000Y-64770000D03*
D11*
%TO.P,D77,2,A*%
%TO.N,SEG_C*%
X121280000Y-64770000D03*
%TD*%
D10*
%TO.P,D8,1,K*%
%TO.N,DIG_2*%
X178430000Y-52070000D03*
D11*
%TO.P,D8,2,A*%
%TO.N,SEG_B*%
X180970000Y-52070000D03*
%TD*%
D10*
%TO.P,D93,1,K*%
%TO.N,DIG_1*%
X80640000Y-87630000D03*
D11*
%TO.P,D93,2,A*%
%TO.N,SEG_E*%
X83180000Y-87630000D03*
%TD*%
D10*
%TO.P,D41,1,K*%
%TO.N,DIG_2*%
X140330000Y-52070000D03*
D11*
%TO.P,D41,2,A*%
%TO.N,SEG_F*%
X142870000Y-52070000D03*
%TD*%
D10*
%TO.P,D12,1,K*%
%TO.N,DIG_0*%
X64130000Y-22860000D03*
D11*
%TO.P,D12,2,A*%
%TO.N,SEG_A*%
X64130000Y-20320000D03*
%TD*%
D10*
%TO.P,D25,1,K*%
%TO.N,DIG_2*%
X172080000Y-96520000D03*
D11*
%TO.P,D25,2,A*%
%TO.N,SEG_D*%
X172080000Y-93980000D03*
%TD*%
D10*
%TO.P,D105,1,K*%
%TO.N,DIG_3*%
X197480000Y-59690000D03*
D11*
%TO.P,D105,2,A*%
%TO.N,SEG_G*%
X197480000Y-57150000D03*
%TD*%
D10*
%TO.P,D31,1,K*%
%TO.N,DIG_0*%
X48890000Y-96520000D03*
D11*
%TO.P,D31,2,A*%
%TO.N,SEG_D*%
X48890000Y-93980000D03*
%TD*%
D10*
%TO.P,D18,1,K*%
%TO.N,DIG_2*%
X178430000Y-72390000D03*
D11*
%TO.P,D18,2,A*%
%TO.N,SEG_C*%
X180970000Y-72390000D03*
%TD*%
D10*
%TO.P,D107,1,K*%
%TO.N,DIG_3*%
X212720000Y-59690000D03*
D11*
%TO.P,D107,2,A*%
%TO.N,SEG_G*%
X212720000Y-57150000D03*
%TD*%
D10*
%TO.P,D75,1,K*%
%TO.N,DIG_3*%
X226690000Y-80010000D03*
D11*
%TO.P,D75,2,A*%
%TO.N,SEG_C*%
X229230000Y-80010000D03*
%TD*%
D10*
%TO.P,D87,1,K*%
%TO.N,DIG_1*%
X97150000Y-96520000D03*
D11*
%TO.P,D87,2,A*%
%TO.N,SEG_D*%
X97150000Y-93980000D03*
%TD*%
D10*
%TO.P,D84,1,K*%
%TO.N,DIG_3*%
X197480000Y-96520000D03*
D11*
%TO.P,D84,2,A*%
%TO.N,SEG_D*%
X197480000Y-93980000D03*
%TD*%
D13*
%TO.P,SW1,1,1*%
%TO.N,UP*%
X146120000Y-111470000D03*
X139620000Y-111470000D03*
%TO.P,SW1,2,2*%
%TO.N,GND*%
X139620000Y-106970000D03*
X146120000Y-106970000D03*
%TD*%
D10*
%TO.P,D46,1,K*%
%TO.N,DIG_0*%
X32380000Y-44450000D03*
D11*
%TO.P,D46,2,A*%
%TO.N,SEG_F*%
X34920000Y-44450000D03*
%TD*%
D10*
%TO.P,D111,1,K*%
%TO.N,DIG_1*%
X104770000Y-59690000D03*
D11*
%TO.P,D111,2,A*%
%TO.N,SEG_G*%
X104770000Y-57150000D03*
%TD*%
D10*
%TO.P,D6,1,K*%
%TO.N,DIG_2*%
X178430000Y-36830000D03*
D11*
%TO.P,D6,2,A*%
%TO.N,SEG_B*%
X180970000Y-36830000D03*
%TD*%
D10*
%TO.P,D62,1,K*%
%TO.N,DIG_1*%
X97150000Y-22860000D03*
D11*
%TO.P,D62,2,A*%
%TO.N,SEG_A*%
X97150000Y-20320000D03*
%TD*%
D18*
%TO.N,SEG_A*%
X125090000Y-104140000D03*
%TO.N,SEG_B*%
X127630000Y-52070000D03*
X127630000Y-104140000D03*
%TO.N,SEG_C*%
X130170000Y-68580000D03*
X130170000Y-105410000D03*
%TO.N,SEG_D*%
X132710000Y-106680000D03*
X145410000Y-93980000D03*
%TO.N,SEG_E*%
X131440000Y-91440000D03*
X131440000Y-106680000D03*
%TO.N,SEG_F*%
X126360000Y-104140000D03*
X126360000Y-60960000D03*
%TO.N,SEG_G*%
X118740000Y-57150000D03*
X128900000Y-60960000D03*
X128900000Y-104140000D03*
%TO.N,VCC*%
X42540000Y-102870000D03*
%TO.N,GND*%
X48890000Y-100330000D03*
%TO.N,SCK*%
X50210000Y-110500000D03*
%TD*%
D19*
%TO.N,DIG_2*%
X145410000Y-59690000D02*
X140330000Y-64770000D01*
X140330000Y-29210000D02*
X140330000Y-44450000D01*
X172080000Y-22860000D02*
X178430000Y-29210000D01*
X173350000Y-59690000D02*
X178430000Y-64770000D01*
X147950000Y-59690000D02*
X149220000Y-59690000D01*
X140330000Y-29210000D02*
X140330000Y-27940000D01*
X172080000Y-96520000D02*
X178430000Y-90170000D01*
X145410000Y-22860000D02*
X149220000Y-22860000D01*
X172080000Y-59690000D02*
X149220000Y-59690000D01*
X178430000Y-90170000D02*
X178430000Y-87630000D01*
X149220000Y-96520000D02*
X172080000Y-96520000D01*
X140330000Y-52070000D02*
X147950000Y-59690000D01*
X149220000Y-59690000D02*
X145410000Y-59690000D01*
X140330000Y-27940000D02*
X145410000Y-22860000D01*
X178430000Y-29210000D02*
X178430000Y-52070000D01*
X140330000Y-64770000D02*
X140330000Y-87630000D01*
X178430000Y-87630000D02*
X178430000Y-64770000D01*
X172080000Y-59690000D02*
X173350000Y-59690000D01*
X149220000Y-22860000D02*
X172080000Y-22860000D01*
%TO.N,SEG_A*%
X64130000Y-20320000D02*
X89530000Y-20320000D01*
X97150000Y-20320000D02*
X104770000Y-20320000D01*
X156840000Y-20320000D02*
X149645000Y-20320000D01*
X97150000Y-20320000D02*
X89530000Y-20320000D01*
X125090000Y-104140000D02*
X125090000Y-20745000D01*
X156840000Y-20320000D02*
X172080000Y-20320000D01*
X104770000Y-20320000D02*
X112390000Y-20320000D01*
X172080000Y-20320000D02*
X220340000Y-20320000D01*
X56510000Y-20320000D02*
X63705000Y-20320000D01*
X48890000Y-20320000D02*
X56510000Y-20320000D01*
X125515000Y-20320000D02*
X149220000Y-20320000D01*
X125090000Y-20745000D02*
X125515000Y-20320000D01*
X112390000Y-20320000D02*
X124665000Y-20320000D01*
X124665000Y-20320000D02*
X125090000Y-20745000D01*
X41270000Y-20320000D02*
X48890000Y-20320000D01*
%TO.N,SEG_B*%
X113705000Y-21635000D02*
X80595000Y-21635000D01*
X121280000Y-29210000D02*
X121280000Y-52070000D01*
X121280000Y-29210000D02*
X113705000Y-21635000D01*
X127630000Y-104140000D02*
X127630000Y-52070000D01*
X180970000Y-52070000D02*
X180970000Y-29210000D01*
X73020000Y-29210000D02*
X73020000Y-52070000D01*
X80595000Y-21635000D02*
X73020000Y-29210000D01*
X229230000Y-52070000D02*
X229230000Y-29210000D01*
%TO.N,DIG_0*%
X41270000Y-22860000D02*
X64130000Y-22860000D01*
X38730000Y-22860000D02*
X32380000Y-29210000D01*
X69210000Y-64770000D02*
X64130000Y-59690000D01*
X64130000Y-59690000D02*
X41270000Y-59690000D01*
X70480000Y-29210000D02*
X70480000Y-52070000D01*
X34920000Y-96520000D02*
X32380000Y-93980000D01*
X70480000Y-90170000D02*
X64130000Y-96520000D01*
X41270000Y-22860000D02*
X38730000Y-22860000D01*
X32380000Y-29210000D02*
X32380000Y-36830000D01*
X41270000Y-96520000D02*
X34920000Y-96520000D01*
X32380000Y-44450000D02*
X32380000Y-52070000D01*
X41270000Y-96520000D02*
X64130000Y-96520000D01*
X32380000Y-36830000D02*
X32380000Y-44450000D01*
X70480000Y-52070000D02*
X70480000Y-87630000D01*
X64130000Y-22860000D02*
X70480000Y-29210000D01*
X70480000Y-87630000D02*
X70480000Y-90170000D01*
X70480000Y-64770000D02*
X69210000Y-64770000D01*
X32380000Y-93980000D02*
X32380000Y-64770000D01*
%TO.N,SEG_C*%
X229230000Y-64770000D02*
X229230000Y-87630000D01*
X180970000Y-64770000D02*
X180970000Y-72390000D01*
X180970000Y-72390000D02*
X180970000Y-80010000D01*
X73020000Y-64770000D02*
X73020000Y-87630000D01*
X130170000Y-105410000D02*
X130170000Y-68580000D01*
X180970000Y-80010000D02*
X180970000Y-87630000D01*
X121280000Y-64770000D02*
X121280000Y-87630000D01*
%TO.N,SEG_D*%
X149220000Y-93980000D02*
X172080000Y-93980000D01*
X145410000Y-93980000D02*
X149220000Y-93980000D01*
X132710000Y-106680000D02*
X145410000Y-93980000D01*
%TO.N,SEG_E*%
X142870000Y-87630000D02*
X139060000Y-91440000D01*
X34920000Y-64770000D02*
X34920000Y-87630000D01*
X142870000Y-64770000D02*
X142870000Y-87630000D01*
X131440000Y-106680000D02*
X142870000Y-95250000D01*
X83180000Y-64770000D02*
X83180000Y-87630000D01*
X142870000Y-95250000D02*
X142870000Y-87630000D01*
X191130000Y-64770000D02*
X191130000Y-87630000D01*
X139060000Y-91440000D02*
X131440000Y-91440000D01*
%TO.N,SEG_F*%
X141645000Y-50845000D02*
X127829695Y-50845000D01*
X126360000Y-52314695D02*
X126360000Y-60960000D01*
X127829695Y-50845000D02*
X126360000Y-52314695D01*
X126360000Y-104140000D02*
X126360000Y-60960000D01*
X83180000Y-29210000D02*
X83180000Y-52070000D01*
X191130000Y-29210000D02*
X191130000Y-52070000D01*
X142870000Y-29210000D02*
X142870000Y-52070000D01*
X142870000Y-52070000D02*
X141645000Y-50845000D01*
%TO.N,SEG_G*%
X128900000Y-104140000D02*
X128900000Y-60960000D01*
X172080000Y-57150000D02*
X149220000Y-57150000D01*
X118740000Y-57150000D02*
X89530000Y-57150000D01*
%TO.N,DIG_3*%
X220340000Y-59690000D02*
X197480000Y-59690000D01*
X188590000Y-64770000D02*
X188590000Y-87630000D01*
X193670000Y-22860000D02*
X197480000Y-22860000D01*
X226690000Y-29210000D02*
X226690000Y-52070000D01*
X193670000Y-59690000D02*
X188590000Y-64770000D01*
X188590000Y-52070000D02*
X188590000Y-54610000D01*
X197480000Y-96520000D02*
X220340000Y-96520000D01*
X193670000Y-59690000D02*
X197480000Y-59690000D01*
X197480000Y-22860000D02*
X220340000Y-22860000D01*
X188590000Y-29210000D02*
X188590000Y-27940000D01*
X220340000Y-96520000D02*
X226690000Y-90170000D01*
X220340000Y-22860000D02*
X226690000Y-29210000D01*
X188590000Y-54610000D02*
X193670000Y-59690000D01*
X188590000Y-27940000D02*
X193670000Y-22860000D01*
X226690000Y-90170000D02*
X226690000Y-64770000D01*
X226690000Y-64770000D02*
X225420000Y-64770000D01*
X225420000Y-64770000D02*
X220340000Y-59690000D01*
X188590000Y-52070000D02*
X188590000Y-29210000D01*
%TO.N,DIG_1*%
X89530000Y-59690000D02*
X112390000Y-59690000D01*
X112390000Y-96520000D02*
X118740000Y-90170000D01*
X118740000Y-90170000D02*
X118740000Y-87630000D01*
X89530000Y-22860000D02*
X112390000Y-22860000D01*
X80640000Y-29210000D02*
X86990000Y-22860000D01*
X118740000Y-29210000D02*
X118740000Y-52070000D01*
X86990000Y-22860000D02*
X89530000Y-22860000D01*
X112390000Y-22860000D02*
X118740000Y-29210000D01*
X80640000Y-64770000D02*
X85720000Y-59690000D01*
X80640000Y-87630000D02*
X80640000Y-64770000D01*
X89530000Y-96520000D02*
X112390000Y-96520000D01*
X80640000Y-29210000D02*
X80640000Y-64770000D01*
X85720000Y-59690000D02*
X89530000Y-59690000D01*
X89530000Y-96520000D02*
X80640000Y-87630000D01*
X118740000Y-64770000D02*
X118740000Y-87630000D01*
%TO.N,VCC*%
X74290000Y-104140000D02*
X89525000Y-104140000D01*
X89525000Y-104140000D02*
X95885000Y-110500000D01*
X39990000Y-102870000D02*
X42540000Y-102870000D01*
X36205000Y-106655000D02*
X39990000Y-102870000D01*
%TO.N,GND*%
X41823604Y-105480000D02*
X48693604Y-98610000D01*
X125090000Y-107950000D02*
X138640000Y-107950000D01*
X88260000Y-101600000D02*
X88265000Y-101605000D01*
X139620000Y-106970000D02*
X168980000Y-106970000D01*
X49710000Y-99510000D02*
X88073604Y-99510000D01*
X38745000Y-106655000D02*
X39920000Y-105480000D01*
X90800000Y-101600000D02*
X88260000Y-101600000D01*
X49710000Y-99510000D02*
X48890000Y-100330000D01*
X90800000Y-101600000D02*
X90163604Y-101600000D01*
X48693604Y-98610000D02*
X115750000Y-98610000D01*
X39920000Y-105480000D02*
X41823604Y-105480000D01*
X88265000Y-101605000D02*
X88265000Y-102880000D01*
X100965000Y-102880000D02*
X99685000Y-101600000D01*
X88073604Y-99510000D02*
X90163604Y-101600000D01*
X99685000Y-101600000D02*
X90800000Y-101600000D01*
X138640000Y-107950000D02*
X139620000Y-106970000D01*
X115750000Y-98610000D02*
X125090000Y-107950000D01*
%TO.N,MOSI*%
X90350000Y-101150000D02*
X88260000Y-99060000D01*
X48880000Y-99060000D02*
X41285000Y-106655000D01*
X88260000Y-99060000D02*
X48880000Y-99060000D01*
X106855000Y-101150000D02*
X108585000Y-102880000D01*
X90350000Y-101150000D02*
X106855000Y-101150000D01*
%TO.N,CE*%
X80645000Y-99965000D02*
X50515000Y-99965000D01*
X50515000Y-99965000D02*
X43825000Y-106655000D01*
X80645000Y-102880000D02*
X80645000Y-99965000D01*
%TO.N,SCK*%
X50210000Y-110500000D02*
X46365000Y-106655000D01*
%TO.N,UP*%
X56510000Y-114260000D02*
X136830000Y-114260000D01*
X48905000Y-106655000D02*
X56510000Y-114260000D01*
X139620000Y-111470000D02*
X146120000Y-111470000D01*
X136830000Y-114260000D02*
X139620000Y-111470000D01*
%TO.N,DOWN*%
X151050000Y-111470000D02*
X157550000Y-111470000D01*
X148800000Y-109220000D02*
X151050000Y-111470000D01*
X58035000Y-113245000D02*
X131225000Y-113245000D01*
X51445000Y-106655000D02*
X58035000Y-113245000D01*
X131225000Y-113245000D02*
X135250000Y-109220000D01*
X135250000Y-109220000D02*
X148800000Y-109220000D01*
%TO.N,SET*%
X129585000Y-112795000D02*
X133980000Y-108400000D01*
X133980000Y-108400000D02*
X159410000Y-108400000D01*
X60125000Y-112795000D02*
X129585000Y-112795000D01*
X159410000Y-108400000D02*
X162480000Y-111470000D01*
X162480000Y-111470000D02*
X168980000Y-111470000D01*
X53985000Y-106655000D02*
X60125000Y-112795000D01*
%TO.N,Net-(R1-Pad2)*%
X93345000Y-110500000D02*
X92065000Y-109220000D01*
X92065000Y-109220000D02*
X74290000Y-109220000D01*
%TD*%
M02*
